<?xml version="1.0" standalone="no"?>
<!DOCTYPE svg PUBLIC "-//W3C//DTD SVG 1.1//EN" "http://www.w3.org/Graphics/SVG/1.1/DTD/svg11.dtd">
<svg xmlns="http://www.w3.org/2000/svg" width="402.7799987792969" height="279.8299865722656" viewBox="0 0 402.78 279.83">
  <g>
    <path d="M98.83,127.21,86.05,155.65H80.14l12.74-28.44Z" style="fill: #f04600"/>
    <path d="M159,73.38a14.11,14.11,0,1,1-14.1,14.1A14.12,14.12,0,0,1,159,73.38m0-16.2a30.3,30.3,0,1,0,30.31,30.3A30.31,30.31,0,0,0,159,57.18Z" style="fill: #f04600"/>
    <polygon points="89.48 102.65 70.91 58.32 59.66 58.32 59.66 116.64 68.99 116.64 68.99 76.57 85.74 116.64 93.32 116.64 109.98 76.57 109.98 116.64 119.31 116.64 119.31 58.32 108.06 58.32 89.48 102.65" style="fill: #f04600"/>
    <path d="M110,158.24h0a20.5,20.5,0,1,1-41,0v-31H59.66v31a29.83,29.83,0,1,0,59.65,0h0v-31H110Z" style="fill: #f04600"/>
  </g>
  <g>
    <path d="M136.7,127.07l8.58,20.46,8.57-20.46H159V154h-4.31V135.5L147,154h-3.5l-7.72-18.49V154h-4.31V127.07Z"/>
    <path d="M179.85,141.92V154h-4.11v-3a7,7,0,0,1-6.08,3.27c-3.84,0-6.5-2.42-6.5-5.73,0-3.81,3-5.85,8.92-6.46l3.66-.39v-.26c0-2.39-1.66-3.85-4.19-3.85a4,4,0,0,0-4.27,3.69l-3.77-.69c.62-3.81,3.92-6.31,8-6.31C176.47,134.3,179.85,137.07,179.85,141.92Zm-4.11,3.73v-.81l-3.69.42c-3.16.35-4.77,1.5-4.77,3.19s1.27,2.62,3.23,2.62C173.78,151.07,175.7,148.8,175.74,145.65Z"/>
    <path d="M183.16,148.61l3.47-1.46a4.91,4.91,0,0,0,4.84,3.8c2,0,3.34-1.15,3.34-2.53,0-4.2-10.8-1.47-10.8-8.81,0-3,2.65-5.31,6.84-5.31,3.66,0,6.73,1.93,7.58,4.77L195,140.53a4.15,4.15,0,0,0-4.08-3c-1.84,0-3,.73-3,2,0,3.73,10.88.89,10.88,8.85,0,3.34-2.92,5.92-7.3,5.92A8.34,8.34,0,0,1,183.16,148.61Z"/>
    <path d="M218.24,141.92V154h-4.12v-3a7,7,0,0,1-6.07,3.27c-3.85,0-6.5-2.42-6.5-5.73,0-3.81,3-5.85,8.92-6.46l3.65-.39v-.26c0-2.39-1.65-3.85-4.19-3.85a4,4,0,0,0-4.27,3.69l-3.77-.69c.62-3.81,3.93-6.31,8-6.31C214.85,134.3,218.24,137.07,218.24,141.92Zm-4.12,3.73v-.81l-3.69.42c-3.15.35-4.77,1.5-4.77,3.19s1.27,2.62,3.23,2.62C212.16,151.07,214.08,148.8,214.12,145.65Z"/>
    <path d="M232.7,138.23c-2.85,0-5.34,2.53-5.34,8.53V154h-4.2V134.61h4.2v3.69a6.93,6.93,0,0,1,5.92-4,6.34,6.34,0,0,1,2.15.35l-.23,4A6.4,6.4,0,0,0,232.7,138.23Z"/>
    <path d="M245.84,161h-4.31l2.93-7.58-7.54-18.8h4.54L246.53,148l5.19-13.42H256Z"/>
    <path d="M262.51,147.34V154h-4.23V126.77h4.23v15.15l8-7.31h5.42l-8,7.65L276.54,154h-5.11l-6.5-8.92Z"/>
    <path d="M292.2,154v-3.23a7.34,7.34,0,0,1-6.35,3.54c-4.15,0-7-2.73-7-6.92V134.61H283v11.8a3.83,3.83,0,0,0,4,4.12c3.23,0,5.19-2.77,5.19-7.42v-8.5h4.19V154Z"/>
    <path d="M303.55,134.61l4.81,14.5,4.8-14.5h4.31L310.39,154h-4l-7.07-19.38Z"/>
    <path d="M130.28,177.9a10,10,0,1,1,10,10A9.63,9.63,0,0,1,130.28,177.9Zm15.76,0c0-3.72-2.34-6.34-5.76-6.34s-5.77,2.62-5.77,6.34,2.31,6.35,5.77,6.35S146,181.64,146,177.9Z"/>
    <path d="M158.35,168.21v3.24a7.41,7.41,0,0,1,6.39-3.54,6.6,6.6,0,0,1,7,6.92v12.76h-4.2v-11.8a3.79,3.79,0,0,0-4-4.11c-3.26,0-5.23,2.76-5.23,7.42v8.49h-4.19V168.21Z"/>
    <path d="M180.89,180.94v6.65h-4.23V160.37h4.23v15.15l8-7.31h5.42l-8,7.66,8.65,11.72h-5.12l-6.49-8.92Z"/>
    <path d="M195.7,177.9a10,10,0,1,1,10,10A9.63,9.63,0,0,1,195.7,177.9Zm15.77,0c0-3.72-2.35-6.34-5.77-6.34s-5.77,2.62-5.77,6.34,2.31,6.35,5.77,6.35S211.47,181.64,211.47,177.9Z"/>
    <path d="M223.78,160.37v27.22h-4.19V160.37Z"/>
    <path d="M227.7,177.9a10,10,0,1,1,10,10A9.63,9.63,0,0,1,227.7,177.9Zm15.77,0c0-3.72-2.35-6.34-5.77-6.34s-5.77,2.62-5.77,6.34,2.31,6.35,5.77,6.35S243.47,181.64,243.47,177.9Z"/>
    <path d="M269.51,186.52c0,5-3.81,8.38-9.39,8.38-4.53,0-8.11-2.42-8.72-6l3.92-.65c.23,1.92,2.27,3.19,4.8,3.19,3.12,0,5.27-1.85,5.27-4.54V184.6c-1,1.46-3.23,2.46-5.77,2.46-5.76,0-9.07-4-9.07-9.58s3.31-9.57,9-9.57a7.3,7.3,0,0,1,5.8,2.54v-2.24h4.16Zm-3.89-9c0-3.57-2.15-5.92-5.42-5.92s-5.46,2.35-5.46,5.92,2.15,5.92,5.46,5.92S265.62,181.06,265.62,177.48Z"/>
    <path d="M278.62,168.21v19.38h-4.19V168.21Z"/>
    <path d="M282.55,177.9c0-6,3.92-10,9.73-10,4.76,0,8.19,2.54,8.84,6.53l-4.08.81a4.47,4.47,0,0,0-4.65-3.69c-3.34,0-5.5,2.5-5.5,6.34s2.19,6.35,5.5,6.35a4.4,4.4,0,0,0,4.65-3.62l4.12.81c-.81,4-4.15,6.46-8.88,6.46C286.47,187.9,282.55,183.86,282.55,177.9Z"/>
    <path d="M309.2,180.94v6.65H305V160.37h4.23v15.15l8-7.31h5.42l-8,7.66,8.65,11.72h-5.12l-6.5-8.92Z"/>
    <path d="M332.93,194.59h-4.3l2.92-7.57L324,168.21h4.54l5.07,13.43,5.2-13.43h4.3Zm-1.38-28.53,2.57-5.69h5l-4.57,5.69Z"/>
    <path d="M144.7,221.2V218a7.33,7.33,0,0,1-6.35,3.53c-4.15,0-7-2.72-7-6.92V201.82h4.19v11.8a3.83,3.83,0,0,0,4,4.12c3.23,0,5.19-2.77,5.19-7.42v-8.5h4.19V221.2Zm.84-27.22L141,199.67h-3l2.57-5.69Z"/>
    <path d="M152.24,215.81l3.46-1.46a4.92,4.92,0,0,0,4.85,3.81c2,0,3.34-1.15,3.34-2.54,0-4.19-10.8-1.46-10.8-8.8,0-3,2.65-5.31,6.84-5.31,3.65,0,6.73,1.92,7.58,4.77l-3.46,1.46a4.16,4.16,0,0,0-4.08-3c-1.85,0-3,.73-3,2,0,3.73,10.88.89,10.88,8.84,0,3.35-2.92,5.92-7.3,5.92A8.34,8.34,0,0,1,152.24,215.81Z"/>
    <path d="M179.28,221.5c-3.66,0-6.39-2-6.39-6.42V205.4h-3.38v-3.58h3.38v-5.77h4.2v5.77h5v3.58h-5v9.45c0,1.93,1.07,2.93,2.65,2.93a5.6,5.6,0,0,0,2.34-.47l.27,3.73A9.82,9.82,0,0,1,179.28,221.5Z"/>
    <path d="M201.27,209.12V221.2h-4.11v-3a7,7,0,0,1-6.08,3.26c-3.84,0-6.49-2.42-6.49-5.72,0-3.81,3-5.85,8.92-6.46l3.65-.39v-.27c0-2.38-1.65-3.84-4.19-3.84a4,4,0,0,0-4.27,3.69l-3.77-.69c.62-3.81,3.93-6.31,8-6.31C197.89,201.51,201.27,204.28,201.27,209.12Zm-4.11,3.73v-.8l-3.69.42c-3.15.35-4.77,1.5-4.77,3.19,0,1.54,1.27,2.62,3.23,2.62C195.2,218.28,197.12,216,197.16,212.85Z"/>
    <path d="M207.63,201.82l4.8,14.49,4.81-14.49h4.3l-7.07,19.38h-4l-7.07-19.38Z"/>
    <path d="M287.6,127.15a1.91,1.91,0,1,1-1.9,1.91,1.91,1.91,0,0,1,1.9-1.91m0-2.19a4.1,4.1,0,1,0,4.1,4.1,4.09,4.09,0,0,0-4.1-4.1Z"/>
    <circle cx="276.55" cy="162.27" r="2.71"/>
  </g>
</svg>